<svg width="147" height="172" viewBox="0 0 147 172" fill="none" xmlns="http://www.w3.org/2000/svg">
<g clip-path="url(#clip0_75_159)">
<path d="M99.7495 135.221C100.029 135.202 100.304 135.202 100.57 135.226C100.29 135.173 100.015 135.154 99.7495 135.221Z" fill="#D9DADB"/>
<path d="M75.8421 103.534C74.6505 105.307 73.5845 107.152 72.803 109.151C73.8546 107.306 74.8628 105.36 75.8421 103.534Z" fill="#D9DADB"/>
<path d="M120.473 68.8751C119.735 70.2817 119.093 71.7558 118.524 73.2394C119.489 71.3271 120.512 69.4243 121.51 67.5071C120.888 67.6564 120.762 68.326 120.473 68.8751Z" fill="#D9DADB"/>
<path d="M97.5595 7.82302C95.3115 3.95488 92.4606 1.86906 88.4471 2.2448C82.9815 2.76023 79.6916 5.73721 79.2574 10.0148C79.0452 12.0958 77.6511 13.1797 75.9723 12.2259C71.4909 9.67761 67.2748 13.9456 63.3529 10.5688C63.1792 11.2913 63.2854 11.8742 63.5748 12.5871C53.4349 14.5236 52.3833 22.8283 52.3833 22.8283C52.3833 22.8283 55.4416 19.1866 58.5676 18.9409C52.0022 24.5047 52.6389 31.0367 53.3963 34.847C53.9317 34.3605 55.678 29.9962 67.7041 29.476C67.5208 29.4856 66.4402 30.6562 66.3052 30.7862C66.6911 30.7381 67.6896 30.5357 67.9984 30.4683C68.5821 30.343 69.1657 30.1937 69.735 30.0107C73.8112 28.71 77.0867 25.1743 78.3698 21.1375C78.8715 19.5768 79.1175 17.9293 79.0983 16.2915L79.7784 15.7905C79.7784 15.7905 79.7736 17.2838 80.7287 19.6298C81.2835 20.9882 83.517 23.9555 83.517 23.9555C83.4736 25.4055 83.0877 26.7687 82.1422 27.9489C80.9362 29.4519 79.1513 30.2708 77.4388 31.0752C77.4388 31.0752 75.4899 31.9279 73.0587 32.9587C70.912 33.8692 67.6414 35.5022 65.8469 36.7643C63.7726 38.219 61.597 40.1411 60.4682 42.1209C59.8025 43.2915 59.0741 44.4138 60.3235 45.5459C63.623 48.5469 67.9164 52.839 72.1904 54.4142C72.1662 54.7369 72.1421 65.9271 69.4455 69.2605C68.8522 69.9927 67.0963 70.6575 66.1942 71.091C64.9303 71.698 63.9655 72.4832 63.1021 73.4273C61.8044 74.8484 61.0712 76.703 60.6177 78.5768C60.1739 80.4266 60.5598 82.4739 59.9424 84.2514C59.6722 85.0125 59.3249 85.7592 58.9776 86.4865C58.3698 87.7583 57.68 88.9963 57.0432 90.2535C55.4658 93.3606 54.2646 96.6121 53.3239 99.9649C52.0504 104.517 49.4214 105.321 45.4464 103.303C44.7035 102.812 40.883 100.581 40.7913 100.533C34.0716 96.9445 22.6726 97.1276 22.142 95.8799C20.989 92.2141 18.5915 91.1688 15.1907 92.98C13.2177 94.0302 12.4651 95.5427 9.58042 97.2817C8.07535 98.1873 4.42362 97.9513 0.993801 102.571C-0.829649 105.032 0.352217 106.015 0.95521 106.55C1.81387 107.311 3.57461 107.036 5.47042 106.083C7.43859 105.085 10.7961 104.488 13.0054 104.397C14.1005 104.348 14.8723 104.488 15.2389 104.262C16.9321 103.212 21.5872 103.852 26.1555 106.771C33.2612 111.314 41.322 114.426 49.0789 117.687C52.9959 119.334 55.2632 118.641 57.9067 115.529C63.2178 109.286 69.9376 105.928 73.816 98.5679C75.0847 96.1593 75.0799 96.5784 76.392 99.0351C76.4306 99.1074 76.4692 99.1797 76.5078 99.2519C76.8262 98.8087 77.1638 98.3752 77.5208 97.9657C80.0582 94.9695 82.8561 91.4771 83.6521 87.5752C84.4094 84.8439 84.0669 82.0548 84.858 79.2657C85.6395 76.0045 87.9019 73.3936 90.5165 71.4042C91.4331 70.7057 92.393 70.0843 93.3482 69.5351C94.3757 68.8077 95.2778 67.9166 95.6058 66.8713C96.175 65.2383 95.408 63.4848 94.1683 61.8807C93.7823 61.3797 93.3482 60.898 92.8996 60.4356C83.7003 50.5171 79.3829 40.0447 93.8933 33.8547C93.2806 31.5762 92.9188 29.7843 93.1407 28.7341C93.6569 29.0761 95.0124 29.2736 95.3694 29.2496C97.5691 29.1002 98.312 27.3083 98.9488 25.6126C101.163 19.6972 100.999 13.7288 97.5691 7.82784L97.5595 7.82302Z" fill="#D9DADB"/>
<path d="M107.805 164.264C105.919 164.726 104.376 163.782 103.141 162.269C103.295 162.477 103.459 162.684 103.628 162.881C104.713 164.273 107.473 165.497 108.683 163.777C108.736 163.628 108.77 163.474 108.804 163.32C108.625 163.796 108.307 164.138 107.801 164.264H107.805Z" fill="#D9DADB"/>
<path d="M109.007 163.941C107.612 165.926 104.646 164.533 103.382 163.108C100.627 159.914 99.3104 155.781 98.4325 151.73C98.0465 149.037 97.9404 146.315 96.1942 144.123C95.4464 143.059 94.2983 141.985 94.0909 140.361C93.9028 137.538 96.1411 135.308 98.6688 134.749C98.6785 134.306 98.6881 133.858 98.7026 133.405C98.8473 128.863 98.9197 126.324 98.7798 120.914C98.7508 119.734 98.8907 114.98 98.6544 113.183C98.3746 110.697 98.3601 109.614 98.1479 108.265C94.308 113.154 89.3586 117.181 84.2356 120.751C84.279 125.476 85.3017 128.916 86.9949 133.771C88.5193 138.136 91.047 143.55 91.5632 148.17C91.7995 150.318 92.2578 152.457 92.1806 154.625C92.142 155.723 91.9636 156.812 91.5873 157.847C91.1869 158.941 90.4874 159.74 89.9616 160.752C89.32 161.98 89.4406 163.084 90.087 164.278C90.1835 164.456 90.7286 165.025 90.8589 165.179C91.5294 165.969 94.7952 166.195 96.9949 166.316C99.7783 166.465 102.345 166.484 104.979 167.429C106.889 168.113 109.06 168.161 111.028 167.713C112.041 167.482 113.03 167.106 113.903 166.542C114.573 166.109 115.644 165.439 115.914 164.211C116.045 163.623 115.702 163.006 115.307 162.616C114.559 161.87 113.227 161.72 112.248 161.46C111.25 161.19 110.237 160.819 109.233 160.386C109.436 161.585 109.484 162.794 109.011 163.936L109.007 163.941Z" fill="#D9DADB"/>
<path d="M97.984 107.349C97.9551 107.219 97.9261 107.085 97.8972 106.94C97.1688 107.879 96.4404 108.814 95.7023 109.739C94.2117 111.608 89.6 115.712 84.2406 119.855C84.2406 119.975 84.2358 120.105 84.231 120.226C89.0983 116.223 93.903 112.114 97.984 107.349Z" fill="#D9DADB"/>
<path d="M43.2467 155.02C43.2419 155.049 43.2322 155.073 43.2274 155.092C43.0441 155.718 43.5024 154.562 43.2467 155.02Z" fill="#D9DADB"/>
<path d="M144.935 42.1498C144.409 42.0679 143.903 42.3714 143.464 42.6701C142.403 43.3926 141.38 44.173 140.396 45.0064C140.237 45.1412 139.952 45.2617 139.856 45.0738C139.807 44.9823 139.846 44.8763 139.885 44.7848C140.208 43.9899 141.824 41.8511 140.898 41.0419C140.685 40.8588 140.362 40.8588 140.102 40.9744C139.846 41.09 139.643 41.2972 139.45 41.4995C137.936 43.0843 136.074 45.0497 136.074 47.3908C136.103 48.2579 136.098 48.8071 136.257 49.6404C136.445 50.6424 136.05 51.3457 135.162 52.0731C132.535 53.5728 130.444 54.8092 128.891 55.7823C128.365 56.1098 127.641 56.6252 127.13 56.7698C126.103 60.5416 124.332 64.1351 122.287 67.5264C123.126 67.5842 124.704 67.2325 125.664 66.8472C131.722 64.4001 138.63 56.8083 138.901 56.6012C140.227 55.5799 140.941 55.1801 142.499 54.5057C143.826 53.9325 144.897 53.022 145.837 51.9526C146.542 51.153 146.831 50.1944 146.928 49.1443C147.082 47.5209 147.169 42.5063 144.93 42.1498H144.935Z" fill="#D9DADB"/>
<path d="M141.028 98.1102C137.241 93.4184 132.576 89.5309 127.188 86.7804C124.269 85.2919 121.071 84.1021 118.65 81.8284C116.006 79.3524 117.4 76.1827 118.519 73.2491C118.519 73.2491 118.519 73.2443 118.519 73.2395C119.084 71.7558 119.73 70.2866 120.468 68.8751C120.758 68.326 120.883 67.6564 121.505 67.5071C123.367 63.9376 125.162 60.3248 126.406 56.5337C126.025 56.0086 126.595 55.0452 126.759 54.3949C128.365 48.1182 127.328 42.1594 124.655 36.3933C123.748 34.4328 123.416 32.0194 124.385 30.0155C124.863 29.0183 125.644 28.2187 126.604 27.6695C127.897 26.9373 129.335 27.077 130.627 26.446C131.737 25.9065 133.025 24.6877 133.314 23.4931C134.641 17.9582 134.192 14.6585 133.295 10.299C132.34 5.65048 128.018 0.963427 122.451 0.163785C117.405 -0.563599 112.567 0.934524 110.714 7.53879C109.952 10.246 110.454 13.9311 111.867 16.542C114.096 20.6654 114.149 23.4738 111.201 25.3477C110.227 25.9643 109.045 26.5279 107.728 27.2601C106.156 28.2717 104.689 29.4278 103.184 30.608C99.7252 32.188 96.7055 33.5994 94.197 34.9771C83.9751 40.589 82.2385 45.6277 94.2983 59.159C95.3933 60.267 96.5463 61.6591 97.212 63.2054C97.786 64.5446 97.9983 65.9993 97.4918 67.4975C96.5029 70.6141 93.2805 71.7269 91.129 73.5429C90.69 73.8753 90.2848 74.227 89.9085 74.5979C87.458 77.0064 86.252 80.2339 86.1796 83.7408C85.9915 90.8027 81.5004 95.8028 77.5351 101.159C76.9562 101.94 76.387 102.735 75.8467 103.539C74.8723 105.365 73.8593 107.311 72.8076 109.156C72.7401 109.334 72.6678 109.508 72.605 109.686C71.3412 112.133 70.1448 114.946 67.5496 116.618C65.0073 117.648 62.4121 118.588 60.0724 119.874C57.8679 121.208 55.5524 123.058 54.0039 125.496C53.1356 126.868 51.8959 129.431 50.8684 131.194C49.1317 134.181 47.2022 137.143 44.5297 139.374C43.3141 140.39 40.8442 142.418 39.4356 143.145C38.1283 143.82 35.2919 144.73 33.8398 144.976C31.288 145.405 29.2089 147.38 29.6623 149.947C30.3666 153.941 31.7028 156.344 32.0212 160.391C32.3975 165.208 34.5538 168.695 38.3936 171.369C39.2137 171.942 40.6754 172.289 41.6643 171.697C42.2432 171.35 42.1901 170.887 41.9248 170.333C39.3826 165.025 40.6705 159.967 43.1935 155.13C43.2176 155.087 43.2369 155.053 43.2514 155.024C43.3237 154.76 43.4829 154.085 43.4926 153.907C43.8736 152.38 45.5234 148.729 52.2287 143.704C57.2697 139.952 62.5375 136.546 67.125 132.249C67.5303 131.869 70.2654 129.431 74.3175 126.878C77.5496 124.84 81.0276 122.345 84.2404 119.864C89.5998 115.722 94.2115 111.617 95.7021 109.748C96.4401 108.819 97.1686 107.884 97.897 106.95C99.3249 105.11 100.738 103.25 102.147 101.396C103.223 99.9841 104.419 99.6035 106.141 100.316C113.107 103.192 120 106.232 127.434 108.987C121.949 110.924 117.863 118.246 115.374 122.374C111.486 128.81 109.479 132.061 102.591 135.506C102.21 135.698 101.93 135.616 101.621 135.501C101.274 135.428 100.917 135.308 100.569 135.241C100.304 135.212 100.034 135.212 99.7494 135.236C99.7445 135.236 99.7349 135.236 99.7301 135.236C99.3635 135.265 99.0065 135.337 98.6592 135.443C98.582 141.917 99.1464 147.592 100.02 154.08C100.169 155.188 100.897 156.142 101.896 156.648C103.835 157.631 106.17 159.013 108.592 160.111C108.399 159.36 108.157 158.613 107.965 157.9C106.353 153.883 109.166 149.567 109.272 145.665C110.048 144.022 111.066 142.119 112.224 140.718C115.254 136.267 118.92 133.506 124.525 130.12C127.685 128.212 130.666 126.107 133.517 123.761C137.931 120.134 143.503 116.748 146.165 111.511C147.854 108.197 146.064 104.686 143.879 101.699C142.914 100.379 141.877 99.1652 141.023 98.1102H141.028ZM108.997 54.7514C108.997 54.7514 108.968 54.761 108.953 54.761C108.891 54.6069 108.9 54.5924 108.997 54.7514Z" fill="#D9DADB"/>
<path d="M94.9931 140.255C95.1281 141.45 96.1122 142.437 96.9516 143.565C99.6385 147.014 98.6689 151.734 100.111 155.583C100.811 157.934 101.669 160.314 103.141 162.269C104.376 163.782 105.919 164.726 107.805 164.264C108.312 164.138 108.63 163.796 108.809 163.32C109.031 162.274 108.862 161.181 108.587 160.107C106.165 159.003 103.831 157.626 101.891 156.643C100.893 156.137 100.164 155.183 100.015 154.076C99.1416 147.587 98.5772 141.917 98.6544 135.438C96.5222 136.098 94.8146 138.145 94.9931 140.26V140.255Z" fill="#D9DADB"/>
<path d="M108.953 54.761C108.953 54.761 108.982 54.7513 108.997 54.7513C108.9 54.5972 108.891 54.6068 108.953 54.761Z" fill="#D9DADB"/>
<path d="M72.6002 109.686C72.6629 109.508 72.7353 109.329 72.8028 109.156C70.8009 112.677 68.6494 115.832 66.3243 117.056C66.3243 117.056 63.3093 117.913 60.0676 119.879C62.4072 118.593 65.0025 117.653 67.5447 116.622C70.14 114.951 71.3364 112.138 72.6002 109.691V109.686Z" fill="#D9DADB"/>
<path d="M80.6226 123.188C81.8285 122.398 83.0393 121.584 84.2357 120.751C84.2357 120.577 84.2309 120.404 84.2357 120.226C83.0345 121.218 81.8237 122.201 80.6274 123.188H80.6226Z" fill="#D9DADB"/>
<path d="M100.565 135.226C100.917 135.294 101.274 135.414 101.616 135.486C101.563 135.467 101.51 135.448 101.452 135.424C101.177 135.322 100.878 135.255 100.565 135.226Z" fill="#D9DADB"/>
<path d="M98.6545 135.433C99.0019 135.327 99.3637 135.25 99.7255 135.226C99.7303 135.226 99.7399 135.226 99.7448 135.226C99.3878 135.255 99.0212 135.318 98.6545 135.424C98.6545 135.428 98.6545 135.433 98.6545 135.443V135.433Z" fill="#D9DADB"/>
<path d="M108.809 163.32C109.108 162.534 109.031 161.378 108.823 160.213C108.746 160.179 108.669 160.14 108.587 160.107C108.862 161.181 109.031 162.274 108.809 163.32Z" fill="#D9DADB"/>
<path d="M121.51 67.5071C120.512 69.4243 119.494 71.327 118.524 73.2394C118.524 73.2394 118.524 73.2394 118.524 73.2443C119.812 71.4137 121.1 69.5062 122.292 67.5311C122.224 67.5311 122.161 67.5215 122.104 67.5119C121.867 67.4685 121.674 67.4733 121.515 67.5119L121.51 67.5071Z" fill="#D9DADB"/>
</g>
<defs>
<clipPath id="clip0_75_159">
<rect width="147" height="172" fill="white"/>
</clipPath>
</defs>
</svg>
