<svg width="153" height="35" viewBox="0 0 153 35" fill="none" xmlns="http://www.w3.org/2000/svg">
<g clip-path="url(#clip0_79_247)">
<path d="M27.2957 10.8483C27.1843 10.974 27.0643 11.0912 26.9443 11.1996C26.0786 11.989 25.0543 12.3924 23.88 12.3924C21.2014 12.3924 19.2943 10.4449 19.2943 7.65145C19.2943 4.85804 21.2014 2.91914 23.88 2.91914C24.4843 2.91914 25.05 3.02324 25.5686 3.23145C26.2629 3.50038 26.88 3.96016 27.4243 4.58911L28.6757 1.66558C28.5986 1.60051 28.5172 1.53545 28.4357 1.47472C27.1757 0.516116 25.56 -0.00439453 23.7172 -0.00439453C19.26 -0.00439453 15.9429 3.18807 15.9429 7.64711C15.9429 12.1062 19.2557 15.303 23.6957 15.303C25.6029 15.303 27.2614 14.7608 28.5343 13.7414L27.2957 10.8396V10.8483Z" fill="black"/>
<path d="M11.3143 11.8806H6.90857L5.72571 9.27804L3.39429 15.0514H0L6.38143 0.255859H9.65571L16.0586 15.0557H12.5829L11.3143 11.8849V11.8806ZM10.2729 9.27804L8.00143 3.61315L5.73 9.27804H10.2729Z" fill="black"/>
<path d="M42.3857 12.3057V15.0557H32.6143L31.2986 11.9934V0.255859H42.12V3.00155H34.59V6.21571H40.7057V8.87898H35.7172L34.5943 6.21571V12.3057H42.39H42.3857Z" fill="black"/>
<path d="M121.547 3.27052V0.472778H113.713H110.983V11.9197L112.749 15.021H113.713H121.547V12.219H114.257V9.14362H120.707V6.34587H114.257V3.27052H121.547Z" fill="black"/>
<path d="M105.094 11.7071V0.472778H101.82V11.9197L103.59 15.021H104.464H105.094H111.673L109.783 11.7071H105.094Z" fill="black"/>
<path d="M71.5928 0.472778H70.1828H68.3185L63.5056 15.021H66.7799L70.8856 2.5982L72.9813 8.92674H68.7985V8.93108L70.3928 11.7245H73.907L74.9956 15.021H78.2699L73.457 0.472778H71.5928Z" fill="black"/>
<path d="M62.3229 7.47359C62.8929 6.7362 63.2357 5.81229 63.2357 4.80597C63.2357 2.41596 61.3157 0.468384 58.95 0.468384H54.99H51.8657V11.9196L53.6314 15.0167H54.9857H59.4429C61.8043 15.0167 63.7286 13.0691 63.7286 10.6791C63.7286 9.40815 63.18 8.26737 62.3186 7.46925L62.3229 7.47359ZM60.4714 4.80597C60.4714 5.65614 59.79 6.34148 58.9543 6.34582H55.14V3.27047H58.95C59.79 3.27047 60.4714 3.96014 60.4714 4.81031V4.80597ZM59.4514 12.2189H55.1443V9.14356H58.9543H59.4472C60.2872 9.14356 60.9686 9.83324 60.9686 10.6834C60.9686 11.5336 60.2872 12.2232 59.4472 12.2232L59.4514 12.2189Z" fill="black"/>
<path d="M89.3615 14.8562C89.3615 14.8562 89.3272 14.8562 89.3101 14.8562C89.2929 14.8562 89.2758 14.8562 89.2586 14.8562C89.2244 14.8562 89.1858 14.8475 89.1515 14.8345C89.1429 14.8345 89.1344 14.8258 89.1258 14.8215C89.0786 14.7955 89.0358 14.7608 89.0058 14.7174C88.8558 14.5179 88.7701 14.2967 88.7186 14.0624C88.6672 13.8282 88.6458 13.5853 88.6158 13.338C88.6158 13.312 88.5986 13.2903 88.5944 13.2643C88.5344 13.0171 88.3072 12.8219 88.2901 12.6961C88.2729 12.5486 88.3972 12.3925 88.5515 12.3317C88.6329 12.297 88.7186 12.2883 88.8001 12.3187C88.8815 12.3534 89.0358 12.2276 89.1601 12.1279C89.5629 11.8676 89.7386 11.5857 90.0258 11.1042C90.2444 10.7355 90.6086 10.0762 91.0929 9.90268C90.4372 9.65543 89.8244 9.38217 89.2072 9.12625C89.0529 9.06118 88.9501 9.09588 88.8558 9.22168C88.7915 9.30409 88.7272 9.3865 88.6672 9.46892C88.6029 9.55133 88.5429 9.63375 88.4786 9.71616C88.4786 9.71182 88.4786 9.70315 88.4744 9.69447C88.0972 10.1065 87.6858 10.4796 87.2744 10.8656C87.2744 10.8656 87.2744 10.87 87.2744 10.8743C87.2615 10.883 87.2486 10.8916 87.2358 10.9047C86.9615 11.1172 86.6658 11.3297 86.3915 11.5076C86.0315 11.7375 85.7915 11.9544 85.7529 11.9891C85.3458 12.3751 84.8829 12.6787 84.4329 13.0171C83.8415 13.4682 83.6915 13.7935 83.6615 13.9323C83.6615 13.9496 83.6444 14.0147 83.6401 14.0364C83.6229 14.0928 83.6572 14.006 83.6401 14.0364C83.6401 14.0364 83.6401 14.0364 83.6401 14.0451C83.4772 14.3617 83.3744 14.687 83.4172 15.0254H88.1229C87.9986 15.0124 87.8915 14.9863 87.8572 14.9473C87.8444 14.9343 87.7972 14.8822 87.7886 14.8649C87.7329 14.7564 87.7201 14.6567 87.7758 14.5482C87.8229 14.4571 87.8829 14.3877 87.9215 14.288C87.9558 14.1969 87.9729 14.0971 87.9729 13.9974C87.9815 13.8022 87.9386 13.6113 87.9172 13.4205C87.8701 13.0041 87.6472 12.5226 87.5144 12.1279C87.3686 11.7071 87.2829 11.3948 87.2744 10.9914C87.7415 10.7051 88.1829 10.3538 88.5086 9.91135C88.5215 10.0068 88.5258 10.1022 88.5429 10.2844C88.5644 10.4449 88.5515 10.87 88.5558 10.9784C88.5686 11.4642 88.5601 11.6898 88.5472 12.0975C88.5472 12.1235 88.5472 12.1452 88.5472 12.1669C88.2944 12.2103 88.0586 12.4272 88.0758 12.7308C88.1358 13.0301 88.3586 13.1168 88.4101 13.3901C88.5001 13.9149 88.6629 14.8302 89.2929 14.943C89.5158 14.943 89.5415 14.7347 89.5201 14.5352C89.4944 14.5222 89.4686 14.5135 89.4429 14.5005C89.4729 14.6697 89.4729 14.8389 89.3529 14.8649L89.3615 14.8562Z" fill="black"/>
<path d="M82.6542 14.5092C82.6242 14.1448 82.5085 13.9323 82.4442 13.5723C82.4057 13.3424 82.59 13.1645 82.8128 13.1255C82.9414 13.1038 83.1942 13.0214 83.31 12.9607C83.4342 12.8956 83.6528 12.7134 83.76 12.6223C83.9957 12.4228 84.1671 12.1582 84.3214 11.8893C84.4114 11.7331 84.5228 11.5032 84.6 11.3775C84.6385 11.3167 84.6857 11.2603 84.7328 11.2039C84.7542 11.1823 84.7757 11.1606 84.7971 11.1389C84.8142 11.1215 84.8314 11.1042 84.8528 11.0868C85.1228 10.8569 85.4571 10.7572 85.8214 10.614C86.0657 10.4579 86.1771 10.1976 86.2928 9.98075C86.3914 9.71182 86.55 9.47759 86.7171 9.25637C87.0042 8.87466 87.3257 8.51898 87.4585 8.03751C87.5357 7.76858 87.5142 7.49531 87.5742 7.30012C87.6171 7.11794 87.7028 7.00082 87.8057 6.90106C88.0285 6.68852 88.3414 6.58442 88.5214 6.19837C88.5642 6.05957 88.5514 5.92944 88.5128 5.81666C88.4528 5.63015 88.32 5.47833 88.2214 5.37857C87.09 4.14669 87.4371 3.72595 88.17 3.29652C88.5685 3.06663 89.0742 2.8324 89.5285 2.46804C89.5757 2.44202 89.6228 2.41599 89.6614 2.38997C89.9228 2.2208 89.9185 1.96922 89.7214 1.60053C89.5971 1.3663 89.55 1.03664 89.6185 0.793736C89.6571 0.650595 89.7171 0.53348 89.7857 0.438053H88.1228C88.2471 0.524805 88.3585 0.650595 88.4528 0.819761C88.7571 1.34895 88.77 1.88247 88.5771 2.41599C88.5214 2.56781 88.4528 2.7283 88.26 2.74131C88.23 2.74131 88.11 2.72396 88.0628 2.6936C88.0457 2.78035 88.0757 2.93217 88.1228 3.12302C87.9214 3.20543 87.7242 3.3052 87.5571 3.45701C87.3471 3.61751 87.1885 3.92981 87.2357 4.22043C87.2657 4.84938 87.84 5.33519 88.0928 5.73425C88.0328 5.88173 87.93 6.13764 87.8528 6.44561C87.81 6.4673 87.7714 6.48465 87.72 6.50634C87.0085 6.99649 87.3771 7.98546 86.8628 8.57103C86.7471 8.67947 86.6485 8.81394 86.5628 8.95708C86.4728 8.78357 86.46 8.76188 86.3571 8.95708C86.0142 9.61639 85.4185 9.92002 84.9514 10.4796C84.7157 10.7572 84.5185 10.8222 84.1714 10.6748C83.4857 10.3841 82.77 10.1022 82.1442 9.69447C81.7414 9.43421 81.33 9.37349 81.18 9.46891C81.1457 9.4906 81.0771 9.47759 80.9828 9.48193C80.7857 9.4906 80.49 9.54265 80.3142 9.63374C80.1471 9.72049 79.9928 9.74218 79.9157 9.67712C79.8642 9.6294 79.7571 9.54265 79.9157 9.32143C80.22 8.90503 80.5414 8.92671 80.6742 8.84864C80.9271 8.69248 80.9957 8.55802 81.1714 8.46259C81.4714 8.3021 81.6857 8.39319 81.7842 8.72285C81.8314 8.83562 82.8385 8.81827 83.4342 9.13926C83.4428 9.14359 83.7814 9.34312 83.8457 9.3865C84.1971 9.56868 84.4285 9.49494 84.5442 9.0872C84.6257 8.78791 84.7328 8.49296 84.8742 8.21535C84.93 8.10257 84.99 7.98979 85.0457 7.87702C85.0757 7.81195 85.1057 7.74689 85.1314 7.67749C85.1871 7.517 85.1528 7.33482 85.1914 7.16999C85.23 7.00082 85.2942 6.836 85.41 6.71021C85.4871 6.62345 85.5728 6.55405 85.6842 6.502C85.7657 6.46296 85.92 6.40224 85.9714 6.33717C86.2114 6.03788 86.2114 5.0359 86.2157 5.00553C85.8385 4.86239 85.4571 4.48069 85.1657 4.21176C85.0542 4.11199 85.1185 4.00789 85.1785 3.90379C85.2771 3.72595 85.47 3.55244 85.6542 3.42231C85.8128 3.30954 86.1042 3.16206 86.2928 3.07964C86.5071 2.98856 86.6785 2.91048 86.6785 2.91048C86.8285 2.83674 86.9871 2.76734 87.0942 2.62854C87.18 2.52443 87.21 2.39864 87.2142 2.26852C87.2142 2.26852 87.0171 2.00392 86.9657 1.88247C86.88 1.66993 86.88 1.5398 86.88 1.5398L86.82 1.58318C86.82 1.73065 86.7985 1.87813 86.7557 2.01694C86.6442 2.37696 86.3528 2.69794 85.9928 2.81071C85.9414 2.82806 85.89 2.84108 85.8385 2.84975C85.8128 2.85409 85.7228 2.87144 85.6885 2.88012C85.7014 2.8671 85.7957 2.763 85.8128 2.763C84.75 2.81071 84.5957 3.2011 84.5485 3.24447C84.48 2.9018 84.4242 2.31623 85.0071 1.81741C84.7328 1.83909 84.4585 2.16441 84.4585 2.16441C84.4585 2.16441 84.5528 1.41835 85.4485 1.24484C85.4228 1.17978 85.4142 1.12773 85.4271 1.06267C85.7742 1.3663 86.1471 0.98459 86.5414 1.21014C86.6914 1.2969 86.8114 1.19713 86.8328 1.01062C86.8585 0.75036 87.0085 0.555168 87.2442 0.433716H74.1042L74.9314 3.57413H77.49V3.5828H79.3157V15.0037H82.7957C82.7185 14.8562 82.6671 14.687 82.6542 14.4962V14.5092Z" fill="black"/>
<path d="M91.2643 0.446777C91.4443 0.615943 91.5686 0.832823 91.6158 1.0497C91.6929 1.44008 91.7358 1.73504 91.6158 2.23386C91.5901 2.3423 91.4743 2.45074 91.3801 2.49846C91.2643 2.55485 91.1401 2.54183 91.0243 2.6069C90.9386 2.65461 90.8701 2.72835 90.8272 2.8151C90.7415 2.99294 90.7715 3.20982 90.8529 3.38766C91.0586 3.83443 91.1443 4.29422 91.0758 4.77135C90.8958 5.44368 90.5529 6.03793 90.3129 6.6929C90.2143 6.9575 90.0901 7.23944 90.3258 7.46066C90.5401 7.66452 90.8229 7.77296 91.0801 7.90309C91.5558 8.15033 91.9715 8.49734 92.3058 8.91809C92.3829 9.01351 92.4729 9.12195 92.5586 9.23907C92.7515 9.508 92.9101 9.8203 92.7601 10.1196C92.5243 10.5881 92.0315 10.8917 91.6415 11.217C91.3886 11.4252 91.1272 11.6161 90.8443 11.7852C90.3515 12.0845 90.0301 12.3318 89.7643 12.7222C89.7815 12.7048 89.7986 12.6875 89.8158 12.6788C89.7643 12.8089 89.5758 13.247 89.5886 13.1733C89.6101 13.581 89.3829 13.8673 89.4901 14.2446C89.5029 14.314 89.5243 14.4138 89.5329 14.5179C89.6101 14.5483 89.6829 14.5786 89.7601 14.596C89.8458 14.6177 89.9658 14.6307 90.0301 14.7001C90.0643 14.7348 90.0943 14.7912 90.0858 14.8432C90.0686 14.9213 90.0172 14.969 89.9658 15.0081H96.4115V3.6002H100.933V0.446777H91.2729H91.2643ZM92.8201 4.53279C92.8115 4.62821 92.7858 4.71063 92.7258 4.78437C92.6443 4.87979 92.5458 4.96221 92.4301 5.01426C92.2929 5.07498 92.2286 5.10968 92.1129 5.20077C92.0872 5.21812 91.4786 5.89913 90.9429 6.12034C90.8786 6.14637 90.7801 6.17239 90.7029 6.18107C90.9001 5.87744 91.0543 5.54344 91.1272 5.1921C91.1615 5.17475 91.2001 5.14872 91.2258 5.12703C91.3629 5.04028 91.5472 4.92895 91.7786 4.79304C91.8558 4.72798 91.8943 4.66291 91.8772 4.57616C91.8643 4.50242 91.8643 4.45037 91.8601 4.37229C91.8601 4.16409 92.0229 3.98625 92.1601 3.84311C92.1772 3.82576 92.1943 3.80841 92.2158 3.7954C92.2372 3.78672 92.2672 3.78672 92.2843 3.79973C92.3658 3.87347 92.2243 4.06433 92.1943 4.13373C92.1943 4.1424 92.1858 4.15108 92.1943 4.15975C92.2029 4.1771 92.2286 4.16409 92.2415 4.15542C92.3272 4.08168 92.4172 4.01227 92.5115 3.94721C92.5501 3.92119 92.5929 3.89082 92.6401 3.8995C92.8372 3.92986 92.8286 4.38097 92.8158 4.52845L92.8201 4.53279Z" fill="black"/>
<path d="M153 20.1741V35H150.27L143.109 25.9995V35H139.826V20.1741H142.573L149.713 29.1746V20.1741H152.996H153Z" fill="black"/>
<path d="M121.243 27.3354C121.243 23.0759 124.457 19.9225 128.841 19.9225C133.226 19.9225 136.44 23.0542 136.44 27.3354C136.44 31.6166 133.209 34.7484 128.841 34.7484C124.474 34.7484 121.243 31.5949 121.243 27.3354ZM133.183 27.3354C133.183 24.6114 131.319 22.7506 128.837 22.7506C126.356 22.7506 124.491 24.6158 124.491 27.3354C124.491 30.0551 126.356 31.9203 128.837 31.9203C131.319 31.9203 133.183 30.0551 133.183 27.3354Z" fill="black"/>
<path d="M74.4472 30.606C74.3357 30.7318 74.22 30.8445 74.1 30.953C73.2472 31.7294 72.24 32.1285 71.0829 32.1285C68.4429 32.1285 66.5657 30.2112 66.5657 27.4612C66.5657 24.7112 68.4429 22.7983 71.0829 22.7983C71.6786 22.7983 72.2357 22.9024 72.7457 23.1063C73.4272 23.3709 74.04 23.822 74.5757 24.4423L75.8057 21.5664C75.7286 21.5014 75.6472 21.4406 75.57 21.3799C74.3314 20.4343 72.7372 19.9225 70.9243 19.9225C66.5357 19.9225 63.27 23.0672 63.27 27.4569C63.27 31.8465 66.5357 34.9956 70.9029 34.9956C72.78 34.9956 74.4129 34.4621 75.6686 33.4558L74.4514 30.6016L74.4472 30.606Z" fill="black"/>
<path d="M11.3314 31.8248H6.92143L5.73857 29.2179L3.40286 35H0L6.39429 20.1741H9.67286L16.0886 35H12.6043L11.3357 31.8248H11.3314ZM10.2857 29.2179L8.01 23.5444L5.73429 29.2179H10.2814H10.2857Z" fill="black"/>
<path d="M95.5929 31.8248H91.1829L90 29.2179L87.6643 35H84.2615L90.6558 20.1741H93.9343L100.35 35H96.8658L95.5972 31.8248H95.5929ZM94.5472 29.2179L92.2715 23.5444L89.9958 29.2179H94.5429H94.5472Z" fill="black"/>
<path d="M113.627 20.1741L112.414 22.9675H107.966V35H104.644V22.9675H100.196L98.9829 20.1741H113.627Z" fill="black"/>
<path d="M79.0242 20.1741H82.3456V35H79.0242V20.1741Z" fill="black"/>
<path d="M114.707 20.1741H118.028V35H114.707V20.1741Z" fill="black"/>
<path d="M45.0256 27.3354C45.0256 23.0759 48.2399 19.9225 52.6242 19.9225C57.0085 19.9225 60.2228 23.0542 60.2228 27.3354C60.2228 31.6166 56.9914 34.7484 52.6242 34.7484C48.2571 34.7484 45.0256 31.5949 45.0256 27.3354ZM56.9656 27.3354C56.9656 24.6114 55.1013 22.7506 52.6199 22.7506C50.1385 22.7506 48.2742 24.6158 48.2742 27.3354C48.2742 30.0551 50.1385 31.9203 52.6199 31.9203C55.1013 31.9203 56.9656 30.0551 56.9656 27.3354Z" fill="black"/>
<path d="M17.5072 33.3429L18.5958 30.8445C19.7658 31.725 21.5101 32.3409 23.1772 32.3409C25.0801 32.3409 25.8558 31.686 25.8558 30.8054C25.8558 28.1248 17.7815 29.9639 17.7815 24.6417C17.7815 22.204 19.6844 20.1783 23.6315 20.1783C25.3758 20.1783 27.1629 20.6078 28.4529 21.4493L27.4629 23.9694C26.1729 23.2103 24.8444 22.8416 23.6144 22.8416C21.7115 22.8416 20.9744 23.579 20.9744 24.4812C20.9744 27.1228 29.0486 25.301 29.0486 30.5625C29.0486 32.9569 27.1244 35.0042 23.1558 35.0042C20.9529 35.0042 18.7329 34.3276 17.5029 33.3473L17.5072 33.3429Z" fill="black"/>
<path d="M31.08 33.3429L32.1685 30.8445C33.3385 31.725 35.0828 32.3409 36.75 32.3409C38.6528 32.3409 39.4285 31.686 39.4285 30.8054C39.4285 28.1248 31.3543 29.9639 31.3543 24.6417C31.3543 22.204 33.2571 20.1783 37.2043 20.1783C38.9485 20.1783 40.7357 20.6078 42.0257 21.4493L41.0357 23.9694C39.7457 23.2103 38.4171 22.8416 37.1871 22.8416C35.2843 22.8416 34.5471 23.579 34.5471 24.4812C34.5471 27.1228 42.6214 25.301 42.6214 30.5625C42.6214 32.9569 40.6971 35.0042 36.7285 35.0042C34.5257 35.0042 32.3057 34.3276 31.0757 33.3473L31.08 33.3429Z" fill="black"/>
</g>
<defs>
<clipPath id="clip0_79_247">
<rect width="153" height="35" fill="black"/>
</clipPath>
</defs>
</svg>
